# xmcd
#
# Track frame offsets:
#	150
#	14717
#	31124
#	42047
#	56530
#	69849
#	86916
#	101855
#	117221
#	131925
#
# Disc length: 1996 seconds
#
# Revision: 0
# Processed by: cddbd v1.5.2PL0 Copyright (c) Steve Scherf et al.
# Submitted via: audiograbber 1.83.01
#
DISCID=8607ca0a
DTITLE=Mel McDaniel - Country Pride
DYEAR=1991
DGENRE=Country
TTITLE0=Country Pride
TTITLE1=The Annual Blunt County Snuff Dipper's Ball
TTITLE2=Turtles And Rabbits
TTITLE3=(If I Live To Be A Hundred) I'll Die Young
TTITLE4=You Can't Go Back
TTITLE5=My Ex-Life
TTITLE6=I'll Keep Your Memory Around
TTITLE7=Losing You Wouldn't Hurt At All
TTITLE8=That Ole Gravel Road (Was Easy Street)
TTITLE9=Mama's Bible
EXTD=
EXTT0=
EXTT1=
EXTT2=
EXTT3=
EXTT4=
EXTT5=
EXTT6=
EXTT7=
EXTT8=
EXTT9=
PLAYORDER=
